<mxfile host="app.diagrams.net" modified="2023-05-14T20:18:25.882Z" agent="Mozilla/5.0 (Windows NT 10.0; Win64; x64) AppleWebKit/537.36 (KHTML, like Gecko) Chrome/112.0.0.0 Safari/537.36 OPR/98.0.0.0" etag="5dEFB4H6V_5AF8EmQLr_" version="21.3.0" type="device">
  <diagram name="Página-1" id="SEeeFkuRjXuaV4kP3Bzi">
    <mxGraphModel dx="2786" dy="1552" grid="1" gridSize="10" guides="1" tooltips="1" connect="1" arrows="1" fold="1" page="1" pageScale="1" pageWidth="827" pageHeight="1169" math="0" shadow="0">
      <root>
        <mxCell id="0" />
        <mxCell id="1" parent="0" />
        <mxCell id="fECDbQGhn2Nu8HvRsYtQ-1" value="Jose:&amp;nbsp;Cuidado del espacio verde inteligente&lt;br&gt;Rodri:&amp;nbsp;Luces automáticas&lt;br&gt;Adrian: Estacionamiento inteligente" style="text;html=1;align=center;verticalAlign=middle;resizable=0;points=[];autosize=1;strokeColor=none;fillColor=none;" vertex="1" parent="1">
          <mxGeometry x="1100" y="1070" width="260" height="60" as="geometry" />
        </mxCell>
        <mxCell id="fECDbQGhn2Nu8HvRsYtQ-80" style="edgeStyle=orthogonalEdgeStyle;rounded=0;orthogonalLoop=1;jettySize=auto;html=1;entryX=0;entryY=0.5;entryDx=0;entryDy=0;" edge="1" parent="1" source="fECDbQGhn2Nu8HvRsYtQ-10" target="fECDbQGhn2Nu8HvRsYtQ-41">
          <mxGeometry relative="1" as="geometry">
            <mxPoint x="569" y="410" as="targetPoint" />
            <Array as="points">
              <mxPoint x="589" y="820" />
              <mxPoint x="589" y="465" />
            </Array>
          </mxGeometry>
        </mxCell>
        <mxCell id="fECDbQGhn2Nu8HvRsYtQ-81" style="edgeStyle=orthogonalEdgeStyle;rounded=0;orthogonalLoop=1;jettySize=auto;html=1;entryX=1;entryY=0.5;entryDx=0;entryDy=0;" edge="1" parent="1" source="fECDbQGhn2Nu8HvRsYtQ-10" target="fECDbQGhn2Nu8HvRsYtQ-32">
          <mxGeometry relative="1" as="geometry">
            <Array as="points">
              <mxPoint x="269" y="820" />
              <mxPoint x="269" y="606" />
            </Array>
          </mxGeometry>
        </mxCell>
        <mxCell id="fECDbQGhn2Nu8HvRsYtQ-82" style="edgeStyle=orthogonalEdgeStyle;rounded=0;orthogonalLoop=1;jettySize=auto;html=1;entryX=0;entryY=0.5;entryDx=0;entryDy=0;" edge="1" parent="1" source="fECDbQGhn2Nu8HvRsYtQ-10" target="fECDbQGhn2Nu8HvRsYtQ-36">
          <mxGeometry relative="1" as="geometry">
            <mxPoint x="309" y="680" as="targetPoint" />
            <Array as="points">
              <mxPoint x="269" y="820" />
              <mxPoint x="269" y="753" />
            </Array>
          </mxGeometry>
        </mxCell>
        <mxCell id="fECDbQGhn2Nu8HvRsYtQ-89" style="edgeStyle=orthogonalEdgeStyle;rounded=0;orthogonalLoop=1;jettySize=auto;html=1;entryX=1;entryY=0.5;entryDx=0;entryDy=0;" edge="1" parent="1" source="fECDbQGhn2Nu8HvRsYtQ-10" target="fECDbQGhn2Nu8HvRsYtQ-87">
          <mxGeometry relative="1" as="geometry">
            <mxPoint x="259" y="350" as="targetPoint" />
            <Array as="points">
              <mxPoint x="269" y="820" />
              <mxPoint x="269" y="367" />
            </Array>
          </mxGeometry>
        </mxCell>
        <mxCell id="fECDbQGhn2Nu8HvRsYtQ-93" style="edgeStyle=orthogonalEdgeStyle;rounded=0;orthogonalLoop=1;jettySize=auto;html=1;entryX=0;entryY=0.5;entryDx=0;entryDy=0;" edge="1" parent="1" source="fECDbQGhn2Nu8HvRsYtQ-10" target="fECDbQGhn2Nu8HvRsYtQ-91">
          <mxGeometry relative="1" as="geometry">
            <Array as="points">
              <mxPoint x="269" y="820" />
              <mxPoint x="269" y="543" />
            </Array>
          </mxGeometry>
        </mxCell>
        <mxCell id="fECDbQGhn2Nu8HvRsYtQ-10" value="Sensor" style="swimlane;fontStyle=0;childLayout=stackLayout;horizontal=1;startSize=26;fillColor=none;horizontalStack=0;resizeParent=1;resizeParentMax=0;resizeLast=0;collapsible=1;marginBottom=0;whiteSpace=wrap;html=1;" vertex="1" parent="1">
          <mxGeometry x="349" y="810" width="140" height="78" as="geometry" />
        </mxCell>
        <mxCell id="fECDbQGhn2Nu8HvRsYtQ-11" value="id: int" style="text;strokeColor=none;fillColor=none;align=left;verticalAlign=top;spacingLeft=4;spacingRight=4;overflow=hidden;rotatable=0;points=[[0,0.5],[1,0.5]];portConstraint=eastwest;whiteSpace=wrap;html=1;" vertex="1" parent="fECDbQGhn2Nu8HvRsYtQ-10">
          <mxGeometry y="26" width="140" height="26" as="geometry" />
        </mxCell>
        <mxCell id="fECDbQGhn2Nu8HvRsYtQ-94" value="type: SensorType" style="text;strokeColor=none;fillColor=none;align=left;verticalAlign=top;spacingLeft=4;spacingRight=4;overflow=hidden;rotatable=0;points=[[0,0.5],[1,0.5]];portConstraint=eastwest;whiteSpace=wrap;html=1;" vertex="1" parent="fECDbQGhn2Nu8HvRsYtQ-10">
          <mxGeometry y="52" width="140" height="26" as="geometry" />
        </mxCell>
        <mxCell id="fECDbQGhn2Nu8HvRsYtQ-75" style="edgeStyle=orthogonalEdgeStyle;rounded=0;orthogonalLoop=1;jettySize=auto;html=1;entryX=0;entryY=0.5;entryDx=0;entryDy=0;" edge="1" parent="1" source="fECDbQGhn2Nu8HvRsYtQ-14" target="fECDbQGhn2Nu8HvRsYtQ-45">
          <mxGeometry relative="1" as="geometry">
            <Array as="points">
              <mxPoint x="279" y="260" />
              <mxPoint x="279" y="309" />
            </Array>
          </mxGeometry>
        </mxCell>
        <mxCell id="fECDbQGhn2Nu8HvRsYtQ-14" value="Edificio" style="swimlane;fontStyle=0;childLayout=stackLayout;horizontal=1;startSize=26;fillColor=none;horizontalStack=0;resizeParent=1;resizeParentMax=0;resizeLast=0;collapsible=1;marginBottom=0;whiteSpace=wrap;html=1;" vertex="1" parent="1">
          <mxGeometry x="79" y="250" width="160" height="156" as="geometry" />
        </mxCell>
        <mxCell id="fECDbQGhn2Nu8HvRsYtQ-15" value="id: int" style="text;strokeColor=none;fillColor=none;align=left;verticalAlign=top;spacingLeft=4;spacingRight=4;overflow=hidden;rotatable=0;points=[[0,0.5],[1,0.5]];portConstraint=eastwest;whiteSpace=wrap;html=1;" vertex="1" parent="fECDbQGhn2Nu8HvRsYtQ-14">
          <mxGeometry y="26" width="160" height="26" as="geometry" />
        </mxCell>
        <mxCell id="fECDbQGhn2Nu8HvRsYtQ-16" value="nombre: string" style="text;strokeColor=none;fillColor=none;align=left;verticalAlign=top;spacingLeft=4;spacingRight=4;overflow=hidden;rotatable=0;points=[[0,0.5],[1,0.5]];portConstraint=eastwest;whiteSpace=wrap;html=1;" vertex="1" parent="fECDbQGhn2Nu8HvRsYtQ-14">
          <mxGeometry y="52" width="160" height="26" as="geometry" />
        </mxCell>
        <mxCell id="fECDbQGhn2Nu8HvRsYtQ-26" value="lucesEncendidas: boolean" style="text;strokeColor=none;fillColor=none;align=left;verticalAlign=top;spacingLeft=4;spacingRight=4;overflow=hidden;rotatable=0;points=[[0,0.5],[1,0.5]];portConstraint=eastwest;whiteSpace=wrap;html=1;" vertex="1" parent="fECDbQGhn2Nu8HvRsYtQ-14">
          <mxGeometry y="78" width="160" height="26" as="geometry" />
        </mxCell>
        <mxCell id="fECDbQGhn2Nu8HvRsYtQ-87" value="sensores: List&amp;lt;Sensor&amp;gt;" style="text;strokeColor=none;fillColor=none;align=left;verticalAlign=top;spacingLeft=4;spacingRight=4;overflow=hidden;rotatable=0;points=[[0,0.5],[1,0.5]];portConstraint=eastwest;whiteSpace=wrap;html=1;" vertex="1" parent="fECDbQGhn2Nu8HvRsYtQ-14">
          <mxGeometry y="104" width="160" height="26" as="geometry" />
        </mxCell>
        <mxCell id="fECDbQGhn2Nu8HvRsYtQ-17" value="aulas: List&amp;lt;Aula&amp;gt;" style="text;strokeColor=none;fillColor=none;align=left;verticalAlign=top;spacingLeft=4;spacingRight=4;overflow=hidden;rotatable=0;points=[[0,0.5],[1,0.5]];portConstraint=eastwest;whiteSpace=wrap;html=1;" vertex="1" parent="fECDbQGhn2Nu8HvRsYtQ-14">
          <mxGeometry y="130" width="160" height="26" as="geometry" />
        </mxCell>
        <mxCell id="fECDbQGhn2Nu8HvRsYtQ-74" style="edgeStyle=orthogonalEdgeStyle;rounded=0;orthogonalLoop=1;jettySize=auto;html=1;entryX=0;entryY=0.5;entryDx=0;entryDy=0;" edge="1" parent="1" source="fECDbQGhn2Nu8HvRsYtQ-18" target="fECDbQGhn2Nu8HvRsYtQ-46">
          <mxGeometry relative="1" as="geometry">
            <Array as="points">
              <mxPoint x="329" y="335" />
            </Array>
          </mxGeometry>
        </mxCell>
        <mxCell id="fECDbQGhn2Nu8HvRsYtQ-18" value="Parking" style="swimlane;fontStyle=0;childLayout=stackLayout;horizontal=1;startSize=26;fillColor=none;horizontalStack=0;resizeParent=1;resizeParentMax=0;resizeLast=0;collapsible=1;marginBottom=0;whiteSpace=wrap;html=1;" vertex="1" parent="1">
          <mxGeometry x="299" y="400" width="240" height="182" as="geometry" />
        </mxCell>
        <mxCell id="fECDbQGhn2Nu8HvRsYtQ-19" value="id: int" style="text;strokeColor=none;fillColor=none;align=left;verticalAlign=top;spacingLeft=4;spacingRight=4;overflow=hidden;rotatable=0;points=[[0,0.5],[1,0.5]];portConstraint=eastwest;whiteSpace=wrap;html=1;" vertex="1" parent="fECDbQGhn2Nu8HvRsYtQ-18">
          <mxGeometry y="26" width="240" height="26" as="geometry" />
        </mxCell>
        <mxCell id="fECDbQGhn2Nu8HvRsYtQ-96" value="baja: boolean" style="text;strokeColor=none;fillColor=none;align=left;verticalAlign=top;spacingLeft=4;spacingRight=4;overflow=hidden;rotatable=0;points=[[0,0.5],[1,0.5]];portConstraint=eastwest;whiteSpace=wrap;html=1;" vertex="1" parent="fECDbQGhn2Nu8HvRsYtQ-18">
          <mxGeometry y="52" width="240" height="26" as="geometry" />
        </mxCell>
        <mxCell id="fECDbQGhn2Nu8HvRsYtQ-20" value="ubicacion: string" style="text;strokeColor=none;fillColor=none;align=left;verticalAlign=top;spacingLeft=4;spacingRight=4;overflow=hidden;rotatable=0;points=[[0,0.5],[1,0.5]];portConstraint=eastwest;whiteSpace=wrap;html=1;" vertex="1" parent="fECDbQGhn2Nu8HvRsYtQ-18">
          <mxGeometry y="78" width="240" height="26" as="geometry" />
        </mxCell>
        <mxCell id="fECDbQGhn2Nu8HvRsYtQ-106" value="lucesEncendidas: boolean" style="text;strokeColor=none;fillColor=none;align=left;verticalAlign=top;spacingLeft=4;spacingRight=4;overflow=hidden;rotatable=0;points=[[0,0.5],[1,0.5]];portConstraint=eastwest;whiteSpace=wrap;html=1;" vertex="1" parent="fECDbQGhn2Nu8HvRsYtQ-18">
          <mxGeometry y="104" width="240" height="26" as="geometry" />
        </mxCell>
        <mxCell id="fECDbQGhn2Nu8HvRsYtQ-91" value="sensores: List&amp;lt;Sensor&amp;gt;" style="text;strokeColor=none;fillColor=none;align=left;verticalAlign=top;spacingLeft=4;spacingRight=4;overflow=hidden;rotatable=0;points=[[0,0.5],[1,0.5]];portConstraint=eastwest;whiteSpace=wrap;html=1;" vertex="1" parent="fECDbQGhn2Nu8HvRsYtQ-18">
          <mxGeometry y="130" width="240" height="26" as="geometry" />
        </mxCell>
        <mxCell id="fECDbQGhn2Nu8HvRsYtQ-21" value="estacionamientos: List&amp;lt;Estacionamiento&amp;gt;" style="text;strokeColor=none;fillColor=none;align=left;verticalAlign=top;spacingLeft=4;spacingRight=4;overflow=hidden;rotatable=0;points=[[0,0.5],[1,0.5]];portConstraint=eastwest;whiteSpace=wrap;html=1;" vertex="1" parent="fECDbQGhn2Nu8HvRsYtQ-18">
          <mxGeometry y="156" width="240" height="26" as="geometry" />
        </mxCell>
        <mxCell id="fECDbQGhn2Nu8HvRsYtQ-73" style="edgeStyle=orthogonalEdgeStyle;rounded=0;orthogonalLoop=1;jettySize=auto;html=1;entryX=0;entryY=0.5;entryDx=0;entryDy=0;" edge="1" parent="1" source="fECDbQGhn2Nu8HvRsYtQ-27" target="fECDbQGhn2Nu8HvRsYtQ-17">
          <mxGeometry relative="1" as="geometry">
            <Array as="points">
              <mxPoint x="49" y="528" />
              <mxPoint x="49" y="393" />
            </Array>
          </mxGeometry>
        </mxCell>
        <mxCell id="fECDbQGhn2Nu8HvRsYtQ-27" value="Aula" style="swimlane;fontStyle=0;childLayout=stackLayout;horizontal=1;startSize=26;fillColor=none;horizontalStack=0;resizeParent=1;resizeParentMax=0;resizeLast=0;collapsible=1;marginBottom=0;whiteSpace=wrap;html=1;" vertex="1" parent="1">
          <mxGeometry x="79" y="437" width="160" height="182" as="geometry" />
        </mxCell>
        <mxCell id="fECDbQGhn2Nu8HvRsYtQ-28" value="id: int" style="text;strokeColor=none;fillColor=none;align=left;verticalAlign=top;spacingLeft=4;spacingRight=4;overflow=hidden;rotatable=0;points=[[0,0.5],[1,0.5]];portConstraint=eastwest;whiteSpace=wrap;html=1;" vertex="1" parent="fECDbQGhn2Nu8HvRsYtQ-27">
          <mxGeometry y="26" width="160" height="26" as="geometry" />
        </mxCell>
        <mxCell id="fECDbQGhn2Nu8HvRsYtQ-61" value="baja: boolean" style="text;strokeColor=none;fillColor=none;align=left;verticalAlign=top;spacingLeft=4;spacingRight=4;overflow=hidden;rotatable=0;points=[[0,0.5],[1,0.5]];portConstraint=eastwest;whiteSpace=wrap;html=1;" vertex="1" parent="fECDbQGhn2Nu8HvRsYtQ-27">
          <mxGeometry y="52" width="160" height="26" as="geometry" />
        </mxCell>
        <mxCell id="fECDbQGhn2Nu8HvRsYtQ-29" value="edificio: Edificio" style="text;strokeColor=none;fillColor=none;align=left;verticalAlign=top;spacingLeft=4;spacingRight=4;overflow=hidden;rotatable=0;points=[[0,0.5],[1,0.5]];portConstraint=eastwest;whiteSpace=wrap;html=1;" vertex="1" parent="fECDbQGhn2Nu8HvRsYtQ-27">
          <mxGeometry y="78" width="160" height="26" as="geometry" />
        </mxCell>
        <mxCell id="fECDbQGhn2Nu8HvRsYtQ-30" value="lucesEncendidas: boolean" style="text;strokeColor=none;fillColor=none;align=left;verticalAlign=top;spacingLeft=4;spacingRight=4;overflow=hidden;rotatable=0;points=[[0,0.5],[1,0.5]];portConstraint=eastwest;whiteSpace=wrap;html=1;" vertex="1" parent="fECDbQGhn2Nu8HvRsYtQ-27">
          <mxGeometry y="104" width="160" height="26" as="geometry" />
        </mxCell>
        <mxCell id="fECDbQGhn2Nu8HvRsYtQ-31" value="cortinasAbiertas: boolean" style="text;strokeColor=none;fillColor=none;align=left;verticalAlign=top;spacingLeft=4;spacingRight=4;overflow=hidden;rotatable=0;points=[[0,0.5],[1,0.5]];portConstraint=eastwest;whiteSpace=wrap;html=1;" vertex="1" parent="fECDbQGhn2Nu8HvRsYtQ-27">
          <mxGeometry y="130" width="160" height="26" as="geometry" />
        </mxCell>
        <mxCell id="fECDbQGhn2Nu8HvRsYtQ-32" value="sensores: List&amp;lt;Sensor&amp;gt;" style="text;strokeColor=none;fillColor=none;align=left;verticalAlign=top;spacingLeft=4;spacingRight=4;overflow=hidden;rotatable=0;points=[[0,0.5],[1,0.5]];portConstraint=eastwest;whiteSpace=wrap;html=1;" vertex="1" parent="fECDbQGhn2Nu8HvRsYtQ-27">
          <mxGeometry y="156" width="160" height="26" as="geometry" />
        </mxCell>
        <mxCell id="fECDbQGhn2Nu8HvRsYtQ-79" style="edgeStyle=orthogonalEdgeStyle;rounded=0;orthogonalLoop=1;jettySize=auto;html=1;entryX=1;entryY=0.5;entryDx=0;entryDy=0;" edge="1" parent="1" source="fECDbQGhn2Nu8HvRsYtQ-33" target="fECDbQGhn2Nu8HvRsYtQ-21">
          <mxGeometry relative="1" as="geometry">
            <Array as="points">
              <mxPoint x="569" y="630" />
              <mxPoint x="569" y="569" />
            </Array>
          </mxGeometry>
        </mxCell>
        <mxCell id="fECDbQGhn2Nu8HvRsYtQ-33" value="Estacionamiento" style="swimlane;fontStyle=0;childLayout=stackLayout;horizontal=1;startSize=26;fillColor=none;horizontalStack=0;resizeParent=1;resizeParentMax=0;resizeLast=0;collapsible=1;marginBottom=0;whiteSpace=wrap;html=1;" vertex="1" parent="1">
          <mxGeometry x="349" y="610" width="140" height="156" as="geometry" />
        </mxCell>
        <mxCell id="fECDbQGhn2Nu8HvRsYtQ-34" value="id: int" style="text;strokeColor=none;fillColor=none;align=left;verticalAlign=top;spacingLeft=4;spacingRight=4;overflow=hidden;rotatable=0;points=[[0,0.5],[1,0.5]];portConstraint=eastwest;whiteSpace=wrap;html=1;" vertex="1" parent="fECDbQGhn2Nu8HvRsYtQ-33">
          <mxGeometry y="26" width="140" height="26" as="geometry" />
        </mxCell>
        <mxCell id="fECDbQGhn2Nu8HvRsYtQ-62" value="baja: boolean" style="text;strokeColor=none;fillColor=none;align=left;verticalAlign=top;spacingLeft=4;spacingRight=4;overflow=hidden;rotatable=0;points=[[0,0.5],[1,0.5]];portConstraint=eastwest;whiteSpace=wrap;html=1;" vertex="1" parent="fECDbQGhn2Nu8HvRsYtQ-33">
          <mxGeometry y="52" width="140" height="26" as="geometry" />
        </mxCell>
        <mxCell id="fECDbQGhn2Nu8HvRsYtQ-35" value="ubicacion: Parking" style="text;strokeColor=none;fillColor=none;align=left;verticalAlign=top;spacingLeft=4;spacingRight=4;overflow=hidden;rotatable=0;points=[[0,0.5],[1,0.5]];portConstraint=eastwest;whiteSpace=wrap;html=1;" vertex="1" parent="fECDbQGhn2Nu8HvRsYtQ-33">
          <mxGeometry y="78" width="140" height="26" as="geometry" />
        </mxCell>
        <mxCell id="fECDbQGhn2Nu8HvRsYtQ-37" value="libre: boolean" style="text;strokeColor=none;fillColor=none;align=left;verticalAlign=top;spacingLeft=4;spacingRight=4;overflow=hidden;rotatable=0;points=[[0,0.5],[1,0.5]];portConstraint=eastwest;whiteSpace=wrap;html=1;" vertex="1" parent="fECDbQGhn2Nu8HvRsYtQ-33">
          <mxGeometry y="104" width="140" height="26" as="geometry" />
        </mxCell>
        <mxCell id="fECDbQGhn2Nu8HvRsYtQ-36" value="sensores: List&amp;lt;Sensor&amp;gt;" style="text;strokeColor=none;fillColor=none;align=left;verticalAlign=top;spacingLeft=4;spacingRight=4;overflow=hidden;rotatable=0;points=[[0,0.5],[1,0.5]];portConstraint=eastwest;whiteSpace=wrap;html=1;" vertex="1" parent="fECDbQGhn2Nu8HvRsYtQ-33">
          <mxGeometry y="130" width="140" height="26" as="geometry" />
        </mxCell>
        <mxCell id="fECDbQGhn2Nu8HvRsYtQ-98" style="edgeStyle=orthogonalEdgeStyle;rounded=0;orthogonalLoop=1;jettySize=auto;html=1;entryX=1;entryY=0.5;entryDx=0;entryDy=0;" edge="1" parent="1" source="fECDbQGhn2Nu8HvRsYtQ-38" target="fECDbQGhn2Nu8HvRsYtQ-47">
          <mxGeometry relative="1" as="geometry">
            <Array as="points">
              <mxPoint x="569" y="360" />
            </Array>
          </mxGeometry>
        </mxCell>
        <mxCell id="fECDbQGhn2Nu8HvRsYtQ-38" value="EspacioVerde" style="swimlane;fontStyle=0;childLayout=stackLayout;horizontal=1;startSize=26;fillColor=none;horizontalStack=0;resizeParent=1;resizeParentMax=0;resizeLast=0;collapsible=1;marginBottom=0;whiteSpace=wrap;html=1;" vertex="1" parent="1">
          <mxGeometry x="619" y="348" width="160" height="130" as="geometry" />
        </mxCell>
        <mxCell id="fECDbQGhn2Nu8HvRsYtQ-39" value="id: int" style="text;strokeColor=none;fillColor=none;align=left;verticalAlign=top;spacingLeft=4;spacingRight=4;overflow=hidden;rotatable=0;points=[[0,0.5],[1,0.5]];portConstraint=eastwest;whiteSpace=wrap;html=1;" vertex="1" parent="fECDbQGhn2Nu8HvRsYtQ-38">
          <mxGeometry y="26" width="160" height="26" as="geometry" />
        </mxCell>
        <mxCell id="fECDbQGhn2Nu8HvRsYtQ-63" value="baja: boolean" style="text;strokeColor=none;fillColor=none;align=left;verticalAlign=top;spacingLeft=4;spacingRight=4;overflow=hidden;rotatable=0;points=[[0,0.5],[1,0.5]];portConstraint=eastwest;whiteSpace=wrap;html=1;" vertex="1" parent="fECDbQGhn2Nu8HvRsYtQ-38">
          <mxGeometry y="52" width="160" height="26" as="geometry" />
        </mxCell>
        <mxCell id="fECDbQGhn2Nu8HvRsYtQ-105" value="lucesEncendidas: boolean" style="text;strokeColor=none;fillColor=none;align=left;verticalAlign=top;spacingLeft=4;spacingRight=4;overflow=hidden;rotatable=0;points=[[0,0.5],[1,0.5]];portConstraint=eastwest;whiteSpace=wrap;html=1;" vertex="1" parent="fECDbQGhn2Nu8HvRsYtQ-38">
          <mxGeometry y="78" width="160" height="26" as="geometry" />
        </mxCell>
        <mxCell id="fECDbQGhn2Nu8HvRsYtQ-41" value="sensores: List&amp;lt;Sensor&amp;gt;" style="text;strokeColor=none;fillColor=none;align=left;verticalAlign=top;spacingLeft=4;spacingRight=4;overflow=hidden;rotatable=0;points=[[0,0.5],[1,0.5]];portConstraint=eastwest;whiteSpace=wrap;html=1;" vertex="1" parent="fECDbQGhn2Nu8HvRsYtQ-38">
          <mxGeometry y="104" width="160" height="26" as="geometry" />
        </mxCell>
        <mxCell id="fECDbQGhn2Nu8HvRsYtQ-44" value="Campus" style="swimlane;fontStyle=0;childLayout=stackLayout;horizontal=1;startSize=26;fillColor=none;horizontalStack=0;resizeParent=1;resizeParentMax=0;resizeLast=0;collapsible=1;marginBottom=0;whiteSpace=wrap;html=1;" vertex="1" parent="1">
          <mxGeometry x="349" y="270" width="210" height="104" as="geometry" />
        </mxCell>
        <mxCell id="fECDbQGhn2Nu8HvRsYtQ-45" value="edificio: List&amp;lt;Edificio&amp;gt;" style="text;strokeColor=none;fillColor=none;align=left;verticalAlign=top;spacingLeft=4;spacingRight=4;overflow=hidden;rotatable=0;points=[[0,0.5],[1,0.5]];portConstraint=eastwest;whiteSpace=wrap;html=1;" vertex="1" parent="fECDbQGhn2Nu8HvRsYtQ-44">
          <mxGeometry y="26" width="210" height="26" as="geometry" />
        </mxCell>
        <mxCell id="fECDbQGhn2Nu8HvRsYtQ-46" value="estacionamiento: List&amp;lt;Parking&amp;gt;" style="text;strokeColor=none;fillColor=none;align=left;verticalAlign=top;spacingLeft=4;spacingRight=4;overflow=hidden;rotatable=0;points=[[0,0.5],[1,0.5]];portConstraint=eastwest;whiteSpace=wrap;html=1;" vertex="1" parent="fECDbQGhn2Nu8HvRsYtQ-44">
          <mxGeometry y="52" width="210" height="26" as="geometry" />
        </mxCell>
        <mxCell id="fECDbQGhn2Nu8HvRsYtQ-47" value="espaciosVerdes: List&amp;lt;EspacioVerde&amp;gt;" style="text;strokeColor=none;fillColor=none;align=left;verticalAlign=top;spacingLeft=4;spacingRight=4;overflow=hidden;rotatable=0;points=[[0,0.5],[1,0.5]];portConstraint=eastwest;whiteSpace=wrap;html=1;" vertex="1" parent="fECDbQGhn2Nu8HvRsYtQ-44">
          <mxGeometry y="78" width="210" height="26" as="geometry" />
        </mxCell>
        <mxCell id="fECDbQGhn2Nu8HvRsYtQ-84" style="edgeStyle=orthogonalEdgeStyle;rounded=0;orthogonalLoop=1;jettySize=auto;html=1;" edge="1" parent="1" source="fECDbQGhn2Nu8HvRsYtQ-48" target="fECDbQGhn2Nu8HvRsYtQ-10">
          <mxGeometry relative="1" as="geometry">
            <mxPoint x="419" y="915.9999999999998" as="targetPoint" />
            <Array as="points">
              <mxPoint x="419" y="929" />
            </Array>
          </mxGeometry>
        </mxCell>
        <mxCell id="fECDbQGhn2Nu8HvRsYtQ-48" value="SensorCamara" style="swimlane;fontStyle=0;childLayout=stackLayout;horizontal=1;startSize=26;fillColor=none;horizontalStack=0;resizeParent=1;resizeParentMax=0;resizeLast=0;collapsible=1;marginBottom=0;whiteSpace=wrap;html=1;" vertex="1" parent="1">
          <mxGeometry x="109" y="890" width="140" height="78" as="geometry" />
        </mxCell>
        <mxCell id="fECDbQGhn2Nu8HvRsYtQ-49" value="cantPersonas" style="text;strokeColor=none;fillColor=none;align=left;verticalAlign=top;spacingLeft=4;spacingRight=4;overflow=hidden;rotatable=0;points=[[0,0.5],[1,0.5]];portConstraint=eastwest;whiteSpace=wrap;html=1;" vertex="1" parent="fECDbQGhn2Nu8HvRsYtQ-48">
          <mxGeometry y="26" width="140" height="26" as="geometry" />
        </mxCell>
        <mxCell id="fECDbQGhn2Nu8HvRsYtQ-50" value="hayPersona" style="text;strokeColor=none;fillColor=none;align=left;verticalAlign=top;spacingLeft=4;spacingRight=4;overflow=hidden;rotatable=0;points=[[0,0.5],[1,0.5]];portConstraint=eastwest;whiteSpace=wrap;html=1;" vertex="1" parent="fECDbQGhn2Nu8HvRsYtQ-48">
          <mxGeometry y="52" width="140" height="26" as="geometry" />
        </mxCell>
        <mxCell id="fECDbQGhn2Nu8HvRsYtQ-86" style="edgeStyle=orthogonalEdgeStyle;rounded=0;orthogonalLoop=1;jettySize=auto;html=1;" edge="1" parent="1" source="fECDbQGhn2Nu8HvRsYtQ-52" target="fECDbQGhn2Nu8HvRsYtQ-10">
          <mxGeometry relative="1" as="geometry">
            <mxPoint x="419" y="915.9999999999998" as="targetPoint" />
            <Array as="points">
              <mxPoint x="339" y="928" />
              <mxPoint x="419" y="928" />
            </Array>
          </mxGeometry>
        </mxCell>
        <mxCell id="fECDbQGhn2Nu8HvRsYtQ-52" value="SensorHumedad" style="swimlane;fontStyle=0;childLayout=stackLayout;horizontal=1;startSize=26;fillColor=none;horizontalStack=0;resizeParent=1;resizeParentMax=0;resizeLast=0;collapsible=1;marginBottom=0;whiteSpace=wrap;html=1;" vertex="1" parent="1">
          <mxGeometry x="269" y="950" width="140" height="104" as="geometry" />
        </mxCell>
        <mxCell id="fECDbQGhn2Nu8HvRsYtQ-53" value="humedad" style="text;strokeColor=none;fillColor=none;align=left;verticalAlign=top;spacingLeft=4;spacingRight=4;overflow=hidden;rotatable=0;points=[[0,0.5],[1,0.5]];portConstraint=eastwest;whiteSpace=wrap;html=1;" vertex="1" parent="fECDbQGhn2Nu8HvRsYtQ-52">
          <mxGeometry y="26" width="140" height="26" as="geometry" />
        </mxCell>
        <mxCell id="fECDbQGhn2Nu8HvRsYtQ-54" value="humedadAlta" style="text;strokeColor=none;fillColor=none;align=left;verticalAlign=top;spacingLeft=4;spacingRight=4;overflow=hidden;rotatable=0;points=[[0,0.5],[1,0.5]];portConstraint=eastwest;whiteSpace=wrap;html=1;" vertex="1" parent="fECDbQGhn2Nu8HvRsYtQ-52">
          <mxGeometry y="52" width="140" height="26" as="geometry" />
        </mxCell>
        <mxCell id="fECDbQGhn2Nu8HvRsYtQ-55" value="humedadBaja" style="text;strokeColor=none;fillColor=none;align=left;verticalAlign=top;spacingLeft=4;spacingRight=4;overflow=hidden;rotatable=0;points=[[0,0.5],[1,0.5]];portConstraint=eastwest;whiteSpace=wrap;html=1;" vertex="1" parent="fECDbQGhn2Nu8HvRsYtQ-52">
          <mxGeometry y="78" width="140" height="26" as="geometry" />
        </mxCell>
        <mxCell id="fECDbQGhn2Nu8HvRsYtQ-85" style="edgeStyle=orthogonalEdgeStyle;rounded=0;orthogonalLoop=1;jettySize=auto;html=1;" edge="1" parent="1" source="fECDbQGhn2Nu8HvRsYtQ-56" target="fECDbQGhn2Nu8HvRsYtQ-10">
          <mxGeometry relative="1" as="geometry">
            <mxPoint x="419" y="915.9999999999998" as="targetPoint" />
            <Array as="points">
              <mxPoint x="503" y="928" />
              <mxPoint x="419" y="928" />
            </Array>
          </mxGeometry>
        </mxCell>
        <mxCell id="fECDbQGhn2Nu8HvRsYtQ-56" value="SensorBascula" style="swimlane;fontStyle=0;childLayout=stackLayout;horizontal=1;startSize=26;fillColor=none;horizontalStack=0;resizeParent=1;resizeParentMax=0;resizeLast=0;collapsible=1;marginBottom=0;whiteSpace=wrap;html=1;" vertex="1" parent="1">
          <mxGeometry x="432.5" y="950" width="140" height="104" as="geometry" />
        </mxCell>
        <mxCell id="fECDbQGhn2Nu8HvRsYtQ-57" value="peso" style="text;strokeColor=none;fillColor=none;align=left;verticalAlign=top;spacingLeft=4;spacingRight=4;overflow=hidden;rotatable=0;points=[[0,0.5],[1,0.5]];portConstraint=eastwest;whiteSpace=wrap;html=1;" vertex="1" parent="fECDbQGhn2Nu8HvRsYtQ-56">
          <mxGeometry y="26" width="140" height="26" as="geometry" />
        </mxCell>
        <mxCell id="fECDbQGhn2Nu8HvRsYtQ-59" value="limitePeso" style="text;strokeColor=none;fillColor=none;align=left;verticalAlign=top;spacingLeft=4;spacingRight=4;overflow=hidden;rotatable=0;points=[[0,0.5],[1,0.5]];portConstraint=eastwest;whiteSpace=wrap;html=1;" vertex="1" parent="fECDbQGhn2Nu8HvRsYtQ-56">
          <mxGeometry y="52" width="140" height="26" as="geometry" />
        </mxCell>
        <mxCell id="fECDbQGhn2Nu8HvRsYtQ-60" value="superoLimite" style="text;strokeColor=none;fillColor=none;align=left;verticalAlign=top;spacingLeft=4;spacingRight=4;overflow=hidden;rotatable=0;points=[[0,0.5],[1,0.5]];portConstraint=eastwest;whiteSpace=wrap;html=1;" vertex="1" parent="fECDbQGhn2Nu8HvRsYtQ-56">
          <mxGeometry y="78" width="140" height="26" as="geometry" />
        </mxCell>
        <mxCell id="fECDbQGhn2Nu8HvRsYtQ-83" style="edgeStyle=orthogonalEdgeStyle;rounded=0;orthogonalLoop=1;jettySize=auto;html=1;" edge="1" parent="1" source="fECDbQGhn2Nu8HvRsYtQ-64" target="fECDbQGhn2Nu8HvRsYtQ-10">
          <mxGeometry relative="1" as="geometry">
            <mxPoint x="419" y="915.9999999999998" as="targetPoint" />
            <Array as="points">
              <mxPoint x="419" y="929" />
            </Array>
          </mxGeometry>
        </mxCell>
        <mxCell id="fECDbQGhn2Nu8HvRsYtQ-64" value="SensorTiempo" style="swimlane;fontStyle=0;childLayout=stackLayout;horizontal=1;startSize=26;fillColor=none;horizontalStack=0;resizeParent=1;resizeParentMax=0;resizeLast=0;collapsible=1;marginBottom=0;whiteSpace=wrap;html=1;" vertex="1" parent="1">
          <mxGeometry x="589" y="890" width="140" height="78" as="geometry" />
        </mxCell>
        <mxCell id="fECDbQGhn2Nu8HvRsYtQ-65" value="tiempoActual" style="text;strokeColor=none;fillColor=none;align=left;verticalAlign=top;spacingLeft=4;spacingRight=4;overflow=hidden;rotatable=0;points=[[0,0.5],[1,0.5]];portConstraint=eastwest;whiteSpace=wrap;html=1;" vertex="1" parent="fECDbQGhn2Nu8HvRsYtQ-64">
          <mxGeometry y="26" width="140" height="26" as="geometry" />
        </mxCell>
        <mxCell id="fECDbQGhn2Nu8HvRsYtQ-68" value="hayLuzSolar" style="text;strokeColor=none;fillColor=none;align=left;verticalAlign=top;spacingLeft=4;spacingRight=4;overflow=hidden;rotatable=0;points=[[0,0.5],[1,0.5]];portConstraint=eastwest;whiteSpace=wrap;html=1;" vertex="1" parent="fECDbQGhn2Nu8HvRsYtQ-64">
          <mxGeometry y="52" width="140" height="26" as="geometry" />
        </mxCell>
        <mxCell id="fECDbQGhn2Nu8HvRsYtQ-104" style="edgeStyle=orthogonalEdgeStyle;rounded=0;orthogonalLoop=1;jettySize=auto;html=1;entryX=0;entryY=0.5;entryDx=0;entryDy=0;" edge="1" parent="1" source="fECDbQGhn2Nu8HvRsYtQ-99" target="fECDbQGhn2Nu8HvRsYtQ-94">
          <mxGeometry relative="1" as="geometry">
            <Array as="points">
              <mxPoint x="249" y="750" />
              <mxPoint x="249" y="875" />
            </Array>
          </mxGeometry>
        </mxCell>
        <mxCell id="fECDbQGhn2Nu8HvRsYtQ-99" value="SensorType (ENUM)" style="swimlane;fontStyle=0;childLayout=stackLayout;horizontal=1;startSize=26;fillColor=none;horizontalStack=0;resizeParent=1;resizeParentMax=0;resizeLast=0;collapsible=1;marginBottom=0;whiteSpace=wrap;html=1;" vertex="1" parent="1">
          <mxGeometry x="79" y="740" width="140" height="130" as="geometry" />
        </mxCell>
        <mxCell id="fECDbQGhn2Nu8HvRsYtQ-100" value="SensorCamara" style="text;strokeColor=none;fillColor=none;align=left;verticalAlign=top;spacingLeft=4;spacingRight=4;overflow=hidden;rotatable=0;points=[[0,0.5],[1,0.5]];portConstraint=eastwest;whiteSpace=wrap;html=1;" vertex="1" parent="fECDbQGhn2Nu8HvRsYtQ-99">
          <mxGeometry y="26" width="140" height="26" as="geometry" />
        </mxCell>
        <mxCell id="fECDbQGhn2Nu8HvRsYtQ-101" value="SensorHumedad" style="text;strokeColor=none;fillColor=none;align=left;verticalAlign=top;spacingLeft=4;spacingRight=4;overflow=hidden;rotatable=0;points=[[0,0.5],[1,0.5]];portConstraint=eastwest;whiteSpace=wrap;html=1;" vertex="1" parent="fECDbQGhn2Nu8HvRsYtQ-99">
          <mxGeometry y="52" width="140" height="26" as="geometry" />
        </mxCell>
        <mxCell id="fECDbQGhn2Nu8HvRsYtQ-102" value="SensorBascula" style="text;strokeColor=none;fillColor=none;align=left;verticalAlign=top;spacingLeft=4;spacingRight=4;overflow=hidden;rotatable=0;points=[[0,0.5],[1,0.5]];portConstraint=eastwest;whiteSpace=wrap;html=1;" vertex="1" parent="fECDbQGhn2Nu8HvRsYtQ-99">
          <mxGeometry y="78" width="140" height="26" as="geometry" />
        </mxCell>
        <mxCell id="fECDbQGhn2Nu8HvRsYtQ-103" value="SensorTiempo" style="text;strokeColor=none;fillColor=none;align=left;verticalAlign=top;spacingLeft=4;spacingRight=4;overflow=hidden;rotatable=0;points=[[0,0.5],[1,0.5]];portConstraint=eastwest;whiteSpace=wrap;html=1;" vertex="1" parent="fECDbQGhn2Nu8HvRsYtQ-99">
          <mxGeometry y="104" width="140" height="26" as="geometry" />
        </mxCell>
        <mxCell id="fECDbQGhn2Nu8HvRsYtQ-107" style="edgeStyle=orthogonalEdgeStyle;rounded=0;orthogonalLoop=1;jettySize=auto;html=1;entryX=0;entryY=0.5;entryDx=0;entryDy=0;" edge="1" parent="1" source="fECDbQGhn2Nu8HvRsYtQ-112" target="fECDbQGhn2Nu8HvRsYtQ-150">
          <mxGeometry relative="1" as="geometry">
            <mxPoint x="1420" y="430" as="targetPoint" />
            <Array as="points">
              <mxPoint x="1440" y="840" />
              <mxPoint x="1440" y="459" />
              <mxPoint x="1470" y="459" />
            </Array>
          </mxGeometry>
        </mxCell>
        <mxCell id="fECDbQGhn2Nu8HvRsYtQ-108" style="edgeStyle=orthogonalEdgeStyle;rounded=0;orthogonalLoop=1;jettySize=auto;html=1;entryX=1;entryY=0.5;entryDx=0;entryDy=0;" edge="1" parent="1" source="fECDbQGhn2Nu8HvRsYtQ-112" target="fECDbQGhn2Nu8HvRsYtQ-137">
          <mxGeometry relative="1" as="geometry">
            <Array as="points">
              <mxPoint x="1120" y="840" />
              <mxPoint x="1120" y="574" />
            </Array>
          </mxGeometry>
        </mxCell>
        <mxCell id="fECDbQGhn2Nu8HvRsYtQ-109" style="edgeStyle=orthogonalEdgeStyle;rounded=0;orthogonalLoop=1;jettySize=auto;html=1;entryX=0;entryY=0.5;entryDx=0;entryDy=0;" edge="1" parent="1" source="fECDbQGhn2Nu8HvRsYtQ-112" target="fECDbQGhn2Nu8HvRsYtQ-144">
          <mxGeometry relative="1" as="geometry">
            <mxPoint x="1160" y="700" as="targetPoint" />
            <Array as="points">
              <mxPoint x="1120" y="840" />
              <mxPoint x="1120" y="773" />
            </Array>
          </mxGeometry>
        </mxCell>
        <mxCell id="fECDbQGhn2Nu8HvRsYtQ-110" style="edgeStyle=orthogonalEdgeStyle;rounded=0;orthogonalLoop=1;jettySize=auto;html=1;entryX=1;entryY=0.5;entryDx=0;entryDy=0;" edge="1" parent="1" source="fECDbQGhn2Nu8HvRsYtQ-112" target="fECDbQGhn2Nu8HvRsYtQ-120">
          <mxGeometry relative="1" as="geometry">
            <mxPoint x="1110" y="370" as="targetPoint" />
            <Array as="points">
              <mxPoint x="1120" y="840" />
              <mxPoint x="1120" y="360" />
              <mxPoint x="1090" y="360" />
            </Array>
          </mxGeometry>
        </mxCell>
        <mxCell id="fECDbQGhn2Nu8HvRsYtQ-111" style="edgeStyle=orthogonalEdgeStyle;rounded=0;orthogonalLoop=1;jettySize=auto;html=1;entryX=0;entryY=0.5;entryDx=0;entryDy=0;" edge="1" parent="1" source="fECDbQGhn2Nu8HvRsYtQ-112" target="fECDbQGhn2Nu8HvRsYtQ-128">
          <mxGeometry relative="1" as="geometry">
            <Array as="points">
              <mxPoint x="1120" y="840" />
              <mxPoint x="1120" y="537" />
            </Array>
          </mxGeometry>
        </mxCell>
        <mxCell id="fECDbQGhn2Nu8HvRsYtQ-112" value="Sensor" style="swimlane;fontStyle=0;childLayout=stackLayout;horizontal=1;startSize=26;fillColor=none;horizontalStack=0;resizeParent=1;resizeParentMax=0;resizeLast=0;collapsible=1;marginBottom=0;whiteSpace=wrap;html=1;" vertex="1" parent="1">
          <mxGeometry x="1200" y="830" width="140" height="78" as="geometry" />
        </mxCell>
        <mxCell id="fECDbQGhn2Nu8HvRsYtQ-113" value="id: int" style="text;strokeColor=none;fillColor=none;align=left;verticalAlign=top;spacingLeft=4;spacingRight=4;overflow=hidden;rotatable=0;points=[[0,0.5],[1,0.5]];portConstraint=eastwest;whiteSpace=wrap;html=1;" vertex="1" parent="fECDbQGhn2Nu8HvRsYtQ-112">
          <mxGeometry y="26" width="140" height="26" as="geometry" />
        </mxCell>
        <mxCell id="fECDbQGhn2Nu8HvRsYtQ-114" value="type: SensorType" style="text;strokeColor=none;fillColor=none;align=left;verticalAlign=top;spacingLeft=4;spacingRight=4;overflow=hidden;rotatable=0;points=[[0,0.5],[1,0.5]];portConstraint=eastwest;whiteSpace=wrap;html=1;" vertex="1" parent="fECDbQGhn2Nu8HvRsYtQ-112">
          <mxGeometry y="52" width="140" height="26" as="geometry" />
        </mxCell>
        <mxCell id="fECDbQGhn2Nu8HvRsYtQ-115" style="edgeStyle=orthogonalEdgeStyle;rounded=0;orthogonalLoop=1;jettySize=auto;html=1;entryX=0;entryY=0.5;entryDx=0;entryDy=0;" edge="1" parent="1" source="fECDbQGhn2Nu8HvRsYtQ-116" target="fECDbQGhn2Nu8HvRsYtQ-152">
          <mxGeometry relative="1" as="geometry">
            <Array as="points">
              <mxPoint x="1130" y="280" />
              <mxPoint x="1130" y="329" />
            </Array>
          </mxGeometry>
        </mxCell>
        <mxCell id="fECDbQGhn2Nu8HvRsYtQ-116" value="Edificio" style="swimlane;fontStyle=0;childLayout=stackLayout;horizontal=1;startSize=26;fillColor=none;horizontalStack=0;resizeParent=1;resizeParentMax=0;resizeLast=0;collapsible=1;marginBottom=0;whiteSpace=wrap;html=1;" vertex="1" parent="1">
          <mxGeometry x="930" y="270" width="160" height="130" as="geometry" />
        </mxCell>
        <mxCell id="fECDbQGhn2Nu8HvRsYtQ-117" value="id: int" style="text;strokeColor=none;fillColor=none;align=left;verticalAlign=top;spacingLeft=4;spacingRight=4;overflow=hidden;rotatable=0;points=[[0,0.5],[1,0.5]];portConstraint=eastwest;whiteSpace=wrap;html=1;" vertex="1" parent="fECDbQGhn2Nu8HvRsYtQ-116">
          <mxGeometry y="26" width="160" height="26" as="geometry" />
        </mxCell>
        <mxCell id="fECDbQGhn2Nu8HvRsYtQ-118" value="nombre: string" style="text;strokeColor=none;fillColor=none;align=left;verticalAlign=top;spacingLeft=4;spacingRight=4;overflow=hidden;rotatable=0;points=[[0,0.5],[1,0.5]];portConstraint=eastwest;whiteSpace=wrap;html=1;" vertex="1" parent="fECDbQGhn2Nu8HvRsYtQ-116">
          <mxGeometry y="52" width="160" height="26" as="geometry" />
        </mxCell>
        <mxCell id="fECDbQGhn2Nu8HvRsYtQ-120" value="sensores: List&amp;lt;Sensor&amp;gt;" style="text;strokeColor=none;fillColor=none;align=left;verticalAlign=top;spacingLeft=4;spacingRight=4;overflow=hidden;rotatable=0;points=[[0,0.5],[1,0.5]];portConstraint=eastwest;whiteSpace=wrap;html=1;" vertex="1" parent="fECDbQGhn2Nu8HvRsYtQ-116">
          <mxGeometry y="78" width="160" height="26" as="geometry" />
        </mxCell>
        <mxCell id="fECDbQGhn2Nu8HvRsYtQ-121" value="aulas: List&amp;lt;Aula&amp;gt;" style="text;strokeColor=none;fillColor=none;align=left;verticalAlign=top;spacingLeft=4;spacingRight=4;overflow=hidden;rotatable=0;points=[[0,0.5],[1,0.5]];portConstraint=eastwest;whiteSpace=wrap;html=1;" vertex="1" parent="fECDbQGhn2Nu8HvRsYtQ-116">
          <mxGeometry y="104" width="160" height="26" as="geometry" />
        </mxCell>
        <mxCell id="fECDbQGhn2Nu8HvRsYtQ-122" style="edgeStyle=orthogonalEdgeStyle;rounded=0;orthogonalLoop=1;jettySize=auto;html=1;entryX=0;entryY=0.5;entryDx=0;entryDy=0;" edge="1" parent="1" source="fECDbQGhn2Nu8HvRsYtQ-123" target="fECDbQGhn2Nu8HvRsYtQ-153">
          <mxGeometry relative="1" as="geometry">
            <Array as="points">
              <mxPoint x="1180" y="355" />
            </Array>
          </mxGeometry>
        </mxCell>
        <mxCell id="fECDbQGhn2Nu8HvRsYtQ-123" value="Parking" style="swimlane;fontStyle=0;childLayout=stackLayout;horizontal=1;startSize=26;fillColor=none;horizontalStack=0;resizeParent=1;resizeParentMax=0;resizeLast=0;collapsible=1;marginBottom=0;whiteSpace=wrap;html=1;" vertex="1" parent="1">
          <mxGeometry x="1150" y="420" width="240" height="156" as="geometry" />
        </mxCell>
        <mxCell id="fECDbQGhn2Nu8HvRsYtQ-124" value="id: int" style="text;strokeColor=none;fillColor=none;align=left;verticalAlign=top;spacingLeft=4;spacingRight=4;overflow=hidden;rotatable=0;points=[[0,0.5],[1,0.5]];portConstraint=eastwest;whiteSpace=wrap;html=1;" vertex="1" parent="fECDbQGhn2Nu8HvRsYtQ-123">
          <mxGeometry y="26" width="240" height="26" as="geometry" />
        </mxCell>
        <mxCell id="fECDbQGhn2Nu8HvRsYtQ-125" value="baja: boolean" style="text;strokeColor=none;fillColor=none;align=left;verticalAlign=top;spacingLeft=4;spacingRight=4;overflow=hidden;rotatable=0;points=[[0,0.5],[1,0.5]];portConstraint=eastwest;whiteSpace=wrap;html=1;" vertex="1" parent="fECDbQGhn2Nu8HvRsYtQ-123">
          <mxGeometry y="52" width="240" height="26" as="geometry" />
        </mxCell>
        <mxCell id="fECDbQGhn2Nu8HvRsYtQ-126" value="ubicacion: string" style="text;strokeColor=none;fillColor=none;align=left;verticalAlign=top;spacingLeft=4;spacingRight=4;overflow=hidden;rotatable=0;points=[[0,0.5],[1,0.5]];portConstraint=eastwest;whiteSpace=wrap;html=1;" vertex="1" parent="fECDbQGhn2Nu8HvRsYtQ-123">
          <mxGeometry y="78" width="240" height="26" as="geometry" />
        </mxCell>
        <mxCell id="fECDbQGhn2Nu8HvRsYtQ-128" value="sensores: List&amp;lt;Sensor&amp;gt;" style="text;strokeColor=none;fillColor=none;align=left;verticalAlign=top;spacingLeft=4;spacingRight=4;overflow=hidden;rotatable=0;points=[[0,0.5],[1,0.5]];portConstraint=eastwest;whiteSpace=wrap;html=1;" vertex="1" parent="fECDbQGhn2Nu8HvRsYtQ-123">
          <mxGeometry y="104" width="240" height="26" as="geometry" />
        </mxCell>
        <mxCell id="fECDbQGhn2Nu8HvRsYtQ-129" value="estacionamientos: List&amp;lt;Estacionamiento&amp;gt;" style="text;strokeColor=none;fillColor=none;align=left;verticalAlign=top;spacingLeft=4;spacingRight=4;overflow=hidden;rotatable=0;points=[[0,0.5],[1,0.5]];portConstraint=eastwest;whiteSpace=wrap;html=1;" vertex="1" parent="fECDbQGhn2Nu8HvRsYtQ-123">
          <mxGeometry y="130" width="240" height="26" as="geometry" />
        </mxCell>
        <mxCell id="fECDbQGhn2Nu8HvRsYtQ-130" style="edgeStyle=orthogonalEdgeStyle;rounded=0;orthogonalLoop=1;jettySize=auto;html=1;entryX=0;entryY=0.5;entryDx=0;entryDy=0;" edge="1" parent="1" source="fECDbQGhn2Nu8HvRsYtQ-131" target="fECDbQGhn2Nu8HvRsYtQ-121">
          <mxGeometry relative="1" as="geometry">
            <Array as="points">
              <mxPoint x="900" y="522" />
              <mxPoint x="900" y="387" />
            </Array>
          </mxGeometry>
        </mxCell>
        <mxCell id="fECDbQGhn2Nu8HvRsYtQ-131" value="Aula" style="swimlane;fontStyle=0;childLayout=stackLayout;horizontal=1;startSize=26;fillColor=none;horizontalStack=0;resizeParent=1;resizeParentMax=0;resizeLast=0;collapsible=1;marginBottom=0;whiteSpace=wrap;html=1;" vertex="1" parent="1">
          <mxGeometry x="930" y="457" width="160" height="130" as="geometry" />
        </mxCell>
        <mxCell id="fECDbQGhn2Nu8HvRsYtQ-132" value="id: int" style="text;strokeColor=none;fillColor=none;align=left;verticalAlign=top;spacingLeft=4;spacingRight=4;overflow=hidden;rotatable=0;points=[[0,0.5],[1,0.5]];portConstraint=eastwest;whiteSpace=wrap;html=1;" vertex="1" parent="fECDbQGhn2Nu8HvRsYtQ-131">
          <mxGeometry y="26" width="160" height="26" as="geometry" />
        </mxCell>
        <mxCell id="fECDbQGhn2Nu8HvRsYtQ-133" value="baja: boolean" style="text;strokeColor=none;fillColor=none;align=left;verticalAlign=top;spacingLeft=4;spacingRight=4;overflow=hidden;rotatable=0;points=[[0,0.5],[1,0.5]];portConstraint=eastwest;whiteSpace=wrap;html=1;" vertex="1" parent="fECDbQGhn2Nu8HvRsYtQ-131">
          <mxGeometry y="52" width="160" height="26" as="geometry" />
        </mxCell>
        <mxCell id="fECDbQGhn2Nu8HvRsYtQ-134" value="edificio: Edificio" style="text;strokeColor=none;fillColor=none;align=left;verticalAlign=top;spacingLeft=4;spacingRight=4;overflow=hidden;rotatable=0;points=[[0,0.5],[1,0.5]];portConstraint=eastwest;whiteSpace=wrap;html=1;" vertex="1" parent="fECDbQGhn2Nu8HvRsYtQ-131">
          <mxGeometry y="78" width="160" height="26" as="geometry" />
        </mxCell>
        <mxCell id="fECDbQGhn2Nu8HvRsYtQ-137" value="sensores: List&amp;lt;Sensor&amp;gt;" style="text;strokeColor=none;fillColor=none;align=left;verticalAlign=top;spacingLeft=4;spacingRight=4;overflow=hidden;rotatable=0;points=[[0,0.5],[1,0.5]];portConstraint=eastwest;whiteSpace=wrap;html=1;" vertex="1" parent="fECDbQGhn2Nu8HvRsYtQ-131">
          <mxGeometry y="104" width="160" height="26" as="geometry" />
        </mxCell>
        <mxCell id="fECDbQGhn2Nu8HvRsYtQ-138" style="edgeStyle=orthogonalEdgeStyle;rounded=0;orthogonalLoop=1;jettySize=auto;html=1;entryX=1;entryY=0.5;entryDx=0;entryDy=0;" edge="1" parent="1" source="fECDbQGhn2Nu8HvRsYtQ-139" target="fECDbQGhn2Nu8HvRsYtQ-129">
          <mxGeometry relative="1" as="geometry">
            <Array as="points">
              <mxPoint x="1420" y="650" />
              <mxPoint x="1420" y="563" />
            </Array>
          </mxGeometry>
        </mxCell>
        <mxCell id="fECDbQGhn2Nu8HvRsYtQ-139" value="Estacionamiento" style="swimlane;fontStyle=0;childLayout=stackLayout;horizontal=1;startSize=26;fillColor=none;horizontalStack=0;resizeParent=1;resizeParentMax=0;resizeLast=0;collapsible=1;marginBottom=0;whiteSpace=wrap;html=1;" vertex="1" parent="1">
          <mxGeometry x="1200" y="630" width="140" height="156" as="geometry" />
        </mxCell>
        <mxCell id="fECDbQGhn2Nu8HvRsYtQ-140" value="id: int" style="text;strokeColor=none;fillColor=none;align=left;verticalAlign=top;spacingLeft=4;spacingRight=4;overflow=hidden;rotatable=0;points=[[0,0.5],[1,0.5]];portConstraint=eastwest;whiteSpace=wrap;html=1;" vertex="1" parent="fECDbQGhn2Nu8HvRsYtQ-139">
          <mxGeometry y="26" width="140" height="26" as="geometry" />
        </mxCell>
        <mxCell id="fECDbQGhn2Nu8HvRsYtQ-141" value="baja: boolean" style="text;strokeColor=none;fillColor=none;align=left;verticalAlign=top;spacingLeft=4;spacingRight=4;overflow=hidden;rotatable=0;points=[[0,0.5],[1,0.5]];portConstraint=eastwest;whiteSpace=wrap;html=1;" vertex="1" parent="fECDbQGhn2Nu8HvRsYtQ-139">
          <mxGeometry y="52" width="140" height="26" as="geometry" />
        </mxCell>
        <mxCell id="fECDbQGhn2Nu8HvRsYtQ-142" value="ubicacion: Parking" style="text;strokeColor=none;fillColor=none;align=left;verticalAlign=top;spacingLeft=4;spacingRight=4;overflow=hidden;rotatable=0;points=[[0,0.5],[1,0.5]];portConstraint=eastwest;whiteSpace=wrap;html=1;" vertex="1" parent="fECDbQGhn2Nu8HvRsYtQ-139">
          <mxGeometry y="78" width="140" height="26" as="geometry" />
        </mxCell>
        <mxCell id="fECDbQGhn2Nu8HvRsYtQ-143" value="libre: boolean" style="text;strokeColor=none;fillColor=none;align=left;verticalAlign=top;spacingLeft=4;spacingRight=4;overflow=hidden;rotatable=0;points=[[0,0.5],[1,0.5]];portConstraint=eastwest;whiteSpace=wrap;html=1;" vertex="1" parent="fECDbQGhn2Nu8HvRsYtQ-139">
          <mxGeometry y="104" width="140" height="26" as="geometry" />
        </mxCell>
        <mxCell id="fECDbQGhn2Nu8HvRsYtQ-144" value="sensores: List&amp;lt;Sensor&amp;gt;" style="text;strokeColor=none;fillColor=none;align=left;verticalAlign=top;spacingLeft=4;spacingRight=4;overflow=hidden;rotatable=0;points=[[0,0.5],[1,0.5]];portConstraint=eastwest;whiteSpace=wrap;html=1;" vertex="1" parent="fECDbQGhn2Nu8HvRsYtQ-139">
          <mxGeometry y="130" width="140" height="26" as="geometry" />
        </mxCell>
        <mxCell id="fECDbQGhn2Nu8HvRsYtQ-145" style="edgeStyle=orthogonalEdgeStyle;rounded=0;orthogonalLoop=1;jettySize=auto;html=1;entryX=1;entryY=0.5;entryDx=0;entryDy=0;" edge="1" parent="1" source="fECDbQGhn2Nu8HvRsYtQ-146" target="fECDbQGhn2Nu8HvRsYtQ-154">
          <mxGeometry relative="1" as="geometry">
            <Array as="points">
              <mxPoint x="1420" y="380" />
            </Array>
          </mxGeometry>
        </mxCell>
        <mxCell id="fECDbQGhn2Nu8HvRsYtQ-146" value="EspacioVerde" style="swimlane;fontStyle=0;childLayout=stackLayout;horizontal=1;startSize=26;fillColor=none;horizontalStack=0;resizeParent=1;resizeParentMax=0;resizeLast=0;collapsible=1;marginBottom=0;whiteSpace=wrap;html=1;" vertex="1" parent="1">
          <mxGeometry x="1470" y="368" width="160" height="104" as="geometry" />
        </mxCell>
        <mxCell id="fECDbQGhn2Nu8HvRsYtQ-147" value="id: int" style="text;strokeColor=none;fillColor=none;align=left;verticalAlign=top;spacingLeft=4;spacingRight=4;overflow=hidden;rotatable=0;points=[[0,0.5],[1,0.5]];portConstraint=eastwest;whiteSpace=wrap;html=1;" vertex="1" parent="fECDbQGhn2Nu8HvRsYtQ-146">
          <mxGeometry y="26" width="160" height="26" as="geometry" />
        </mxCell>
        <mxCell id="fECDbQGhn2Nu8HvRsYtQ-148" value="baja: boolean" style="text;strokeColor=none;fillColor=none;align=left;verticalAlign=top;spacingLeft=4;spacingRight=4;overflow=hidden;rotatable=0;points=[[0,0.5],[1,0.5]];portConstraint=eastwest;whiteSpace=wrap;html=1;" vertex="1" parent="fECDbQGhn2Nu8HvRsYtQ-146">
          <mxGeometry y="52" width="160" height="26" as="geometry" />
        </mxCell>
        <mxCell id="fECDbQGhn2Nu8HvRsYtQ-150" value="sensores: List&amp;lt;Sensor&amp;gt;" style="text;strokeColor=none;fillColor=none;align=left;verticalAlign=top;spacingLeft=4;spacingRight=4;overflow=hidden;rotatable=0;points=[[0,0.5],[1,0.5]];portConstraint=eastwest;whiteSpace=wrap;html=1;" vertex="1" parent="fECDbQGhn2Nu8HvRsYtQ-146">
          <mxGeometry y="78" width="160" height="26" as="geometry" />
        </mxCell>
        <mxCell id="fECDbQGhn2Nu8HvRsYtQ-151" value="Campus" style="swimlane;fontStyle=0;childLayout=stackLayout;horizontal=1;startSize=26;fillColor=none;horizontalStack=0;resizeParent=1;resizeParentMax=0;resizeLast=0;collapsible=1;marginBottom=0;whiteSpace=wrap;html=1;" vertex="1" parent="1">
          <mxGeometry x="1200" y="290" width="210" height="104" as="geometry" />
        </mxCell>
        <mxCell id="fECDbQGhn2Nu8HvRsYtQ-152" value="edificio: List&amp;lt;Edificio&amp;gt;" style="text;strokeColor=none;fillColor=none;align=left;verticalAlign=top;spacingLeft=4;spacingRight=4;overflow=hidden;rotatable=0;points=[[0,0.5],[1,0.5]];portConstraint=eastwest;whiteSpace=wrap;html=1;" vertex="1" parent="fECDbQGhn2Nu8HvRsYtQ-151">
          <mxGeometry y="26" width="210" height="26" as="geometry" />
        </mxCell>
        <mxCell id="fECDbQGhn2Nu8HvRsYtQ-153" value="estacionamiento: List&amp;lt;Parking&amp;gt;" style="text;strokeColor=none;fillColor=none;align=left;verticalAlign=top;spacingLeft=4;spacingRight=4;overflow=hidden;rotatable=0;points=[[0,0.5],[1,0.5]];portConstraint=eastwest;whiteSpace=wrap;html=1;" vertex="1" parent="fECDbQGhn2Nu8HvRsYtQ-151">
          <mxGeometry y="52" width="210" height="26" as="geometry" />
        </mxCell>
        <mxCell id="fECDbQGhn2Nu8HvRsYtQ-154" value="espaciosVerdes: List&amp;lt;EspacioVerde&amp;gt;" style="text;strokeColor=none;fillColor=none;align=left;verticalAlign=top;spacingLeft=4;spacingRight=4;overflow=hidden;rotatable=0;points=[[0,0.5],[1,0.5]];portConstraint=eastwest;whiteSpace=wrap;html=1;" vertex="1" parent="fECDbQGhn2Nu8HvRsYtQ-151">
          <mxGeometry y="78" width="210" height="26" as="geometry" />
        </mxCell>
        <mxCell id="fECDbQGhn2Nu8HvRsYtQ-173" style="edgeStyle=orthogonalEdgeStyle;rounded=0;orthogonalLoop=1;jettySize=auto;html=1;entryX=0;entryY=0.5;entryDx=0;entryDy=0;" edge="1" parent="1" source="fECDbQGhn2Nu8HvRsYtQ-174" target="fECDbQGhn2Nu8HvRsYtQ-114">
          <mxGeometry relative="1" as="geometry">
            <Array as="points">
              <mxPoint x="1100" y="770" />
              <mxPoint x="1100" y="895" />
            </Array>
          </mxGeometry>
        </mxCell>
        <mxCell id="fECDbQGhn2Nu8HvRsYtQ-174" value="SensorType (ENUM)" style="swimlane;fontStyle=0;childLayout=stackLayout;horizontal=1;startSize=26;fillColor=none;horizontalStack=0;resizeParent=1;resizeParentMax=0;resizeLast=0;collapsible=1;marginBottom=0;whiteSpace=wrap;html=1;" vertex="1" parent="1">
          <mxGeometry x="930" y="760" width="140" height="130" as="geometry" />
        </mxCell>
        <mxCell id="fECDbQGhn2Nu8HvRsYtQ-175" value="SensorCamara" style="text;strokeColor=none;fillColor=none;align=left;verticalAlign=top;spacingLeft=4;spacingRight=4;overflow=hidden;rotatable=0;points=[[0,0.5],[1,0.5]];portConstraint=eastwest;whiteSpace=wrap;html=1;" vertex="1" parent="fECDbQGhn2Nu8HvRsYtQ-174">
          <mxGeometry y="26" width="140" height="26" as="geometry" />
        </mxCell>
        <mxCell id="fECDbQGhn2Nu8HvRsYtQ-176" value="SensorHumedad" style="text;strokeColor=none;fillColor=none;align=left;verticalAlign=top;spacingLeft=4;spacingRight=4;overflow=hidden;rotatable=0;points=[[0,0.5],[1,0.5]];portConstraint=eastwest;whiteSpace=wrap;html=1;" vertex="1" parent="fECDbQGhn2Nu8HvRsYtQ-174">
          <mxGeometry y="52" width="140" height="26" as="geometry" />
        </mxCell>
        <mxCell id="fECDbQGhn2Nu8HvRsYtQ-177" value="SensorBascula" style="text;strokeColor=none;fillColor=none;align=left;verticalAlign=top;spacingLeft=4;spacingRight=4;overflow=hidden;rotatable=0;points=[[0,0.5],[1,0.5]];portConstraint=eastwest;whiteSpace=wrap;html=1;" vertex="1" parent="fECDbQGhn2Nu8HvRsYtQ-174">
          <mxGeometry y="78" width="140" height="26" as="geometry" />
        </mxCell>
        <mxCell id="fECDbQGhn2Nu8HvRsYtQ-178" value="SensorTiempo" style="text;strokeColor=none;fillColor=none;align=left;verticalAlign=top;spacingLeft=4;spacingRight=4;overflow=hidden;rotatable=0;points=[[0,0.5],[1,0.5]];portConstraint=eastwest;whiteSpace=wrap;html=1;" vertex="1" parent="fECDbQGhn2Nu8HvRsYtQ-174">
          <mxGeometry y="104" width="140" height="26" as="geometry" />
        </mxCell>
        <mxCell id="fECDbQGhn2Nu8HvRsYtQ-179" value="DataBase" style="text;html=1;align=center;verticalAlign=middle;resizable=0;points=[];autosize=1;strokeColor=none;fillColor=none;fontSize=120;" vertex="1" parent="1">
          <mxGeometry x="965" y="40" width="550" height="160" as="geometry" />
        </mxCell>
        <mxCell id="fECDbQGhn2Nu8HvRsYtQ-180" value="Program" style="text;html=1;align=center;verticalAlign=middle;resizable=0;points=[];autosize=1;strokeColor=none;fillColor=none;fontSize=120;" vertex="1" parent="1">
          <mxGeometry x="174" y="40" width="480" height="160" as="geometry" />
        </mxCell>
        <mxCell id="fECDbQGhn2Nu8HvRsYtQ-181" value="" style="endArrow=none;html=1;rounded=0;strokeWidth=6;" edge="1" parent="1">
          <mxGeometry width="50" height="50" relative="1" as="geometry">
            <mxPoint x="827" y="1163" as="sourcePoint" />
            <mxPoint x="827" y="4" as="targetPoint" />
          </mxGeometry>
        </mxCell>
      </root>
    </mxGraphModel>
  </diagram>
</mxfile>
